# xmcd
#
# Track frame offsets:
#	150
#	36325
#	55550
#
# Disc length: 1243 seconds
#
# Revision: 1
# Processed by: cddbd v1.5.1PL0 Copyright (c) Steve Scherf et al.
# Submitted via: audiograbber 1.83.01
#
DISCID=1d04d903
DTITLE=Sacayawea - After the Fire
DYEAR=1994
DGENRE=Dance
TTITLE0=After the Fire (Album Mix)
TTITLE1=After the Fire (Radio Mix)
TTITLE2=Tribaldance (Orginal Mix)
EXTD=
EXTT0=
EXTT1=
EXTT2=
PLAYORDER=
